<svg width="22" height="16" viewBox="0 0 22 16" fill="none" xmlns="http://www.w3.org/2000/svg">
<g clip-path="url(#clip0_2_1265)">
<g clip-path="url(#clip1_2_1265)">
<rect width="22" height="16" rx="2" fill="#F93939"/>
<path d="M19.9048 0H2.09524C0.93807 0 0 0.955126 0 2.13333V13.8667C0 15.0449 0.93807 16 2.09524 16H19.9048C21.0619 16 22 15.0449 22 13.8667V2.13333C22 0.955126 21.0619 0 19.9048 0Z" fill="#F93939"/>
<path fill-rule="evenodd" clip-rule="evenodd" d="M5.75992 7.71201L4.21991 8.53655L4.51325 6.79041L3.26868 5.55308L4.98992 5.30028L5.75992 3.71095L6.52887 5.30028L8.25011 5.55308L7.00344 6.79041L7.29887 8.53548L5.75992 7.71201ZM9.42868 3.20001H10.4763V4.26668H9.42868V3.20001ZM10.4763 5.33335H11.5239V6.40001H10.4763V5.33335ZM10.4763 7.46668H11.5239V8.53335H10.4763V7.46668ZM9.42868 9.60001H10.4763V10.6667H9.42868V9.60001Z" fill="#FFDA2C"/>
</g>
</g>
<defs>
<clipPath id="clip0_2_1265">
<rect width="22" height="16" fill="white"/>
</clipPath>
<clipPath id="clip1_2_1265">
<rect width="22" height="16" rx="2" fill="white"/>
</clipPath>
</defs>
</svg>
